<?xml version="1.0" encoding="UTF-8" standalone="no"?>
<!-- Created with Inkscape (http://www.inkscape.org/) -->

<svg
   xmlns:dc="http://purl.org/dc/elements/1.1/"
   xmlns:cc="http://creativecommons.org/ns#"
   xmlns:rdf="http://www.w3.org/1999/02/22-rdf-syntax-ns#"
   xmlns:svg="http://www.w3.org/2000/svg"
   xmlns="http://www.w3.org/2000/svg"
   xmlns:xlink="http://www.w3.org/1999/xlink"
   xmlns:sodipodi="http://sodipodi.sourceforge.net/DTD/sodipodi-0.dtd"
   xmlns:inkscape="http://www.inkscape.org/namespaces/inkscape"
   width="32"
   height="32"
   id="svg2"
   version="1.1"
   inkscape:version="0.48.4 r9939"
   sodipodi:docname="igloo.svg">
  <defs
     id="defs4">
    <linearGradient
       id="linearGradient3920">
      <stop
         style="stop-color:#efebeb;stop-opacity:1;"
         offset="0"
         id="stop3922" />
      <stop
         style="stop-color:#c8b7b7;stop-opacity:0;"
         offset="1"
         id="stop3924" />
    </linearGradient>
    <linearGradient
       id="linearGradient3797">
      <stop
         style="stop-color:#bebebe;stop-opacity:1;"
         offset="0"
         id="stop3799" />
      <stop
         style="stop-color:#e6e6e6;stop-opacity:0;"
         offset="1"
         id="stop3801" />
    </linearGradient>
    <linearGradient
       id="linearGradient3781">
      <stop
         id="stop3783"
         offset="0"
         style="stop-color:#d800dd;stop-opacity:1;" />
      <stop
         style="stop-color:#fd997f;stop-opacity:0.49803922;"
         offset="0.59500855"
         id="stop3785" />
      <stop
         id="stop3787"
         offset="1"
         style="stop-color:#dd00a0;stop-opacity:1;" />
    </linearGradient>
    <linearGradient
       id="linearGradient3767">
      <stop
         style="stop-color:#d800dd;stop-opacity:1;"
         offset="0"
         id="stop3769" />
      <stop
         id="stop3779"
         offset="0.5"
         style="stop-color:#fd997f;stop-opacity:0.49803922;" />
      <stop
         style="stop-color:#ffff00;stop-opacity:0;"
         offset="1"
         id="stop3771" />
    </linearGradient>
    <linearGradient
       inkscape:collect="always"
       xlink:href="#linearGradient3767"
       id="linearGradient3773"
       x1="16.414978"
       y1="1034.1794"
       x2="16.414978"
       y2="1039.2302"
       gradientUnits="userSpaceOnUse" />
    <linearGradient
       inkscape:collect="always"
       xlink:href="#linearGradient3781"
       id="linearGradient3777"
       gradientUnits="userSpaceOnUse"
       x1="16.594475"
       y1="1031.5469"
       x2="16.534643"
       y2="1040.4867" />
    <linearGradient
       inkscape:collect="always"
       xlink:href="#linearGradient3797"
       id="linearGradient3803"
       x1="544.87549"
       y1="874.96808"
       x2="539.15924"
       y2="871.15973"
       gradientUnits="userSpaceOnUse"
       gradientTransform="translate(6.7888108,4.4353771)" />
    <radialGradient
       inkscape:collect="always"
       xlink:href="#linearGradient3920"
       id="radialGradient3962"
       gradientUnits="userSpaceOnUse"
       gradientTransform="matrix(-0.01050734,0.71450375,-0.96068036,-0.01412756,27.608398,4.2610545)"
       cx="15.830148"
       cy="12.283828"
       fx="15.830148"
       fy="12.283828"
       r="9.659584" />
  </defs>
  <sodipodi:namedview
     id="base"
     pagecolor="#ffffff"
     bordercolor="#666666"
     borderopacity="1.0"
     inkscape:pageopacity="0.0"
     inkscape:pageshadow="2"
     inkscape:zoom="15.839192"
     inkscape:cx="19.30694"
     inkscape:cy="18.559914"
     inkscape:document-units="px"
     inkscape:current-layer="layer1"
     showgrid="false"
     inkscape:window-width="1920"
     inkscape:window-height="1003"
     inkscape:window-x="-9"
     inkscape:window-y="-9"
     inkscape:window-maximized="1" />
  <metadata
     id="metadata7">
    <rdf:RDF>
      <cc:Work
         rdf:about="">
        <dc:format>image/svg+xml</dc:format>
        <dc:type
           rdf:resource="http://purl.org/dc/dcmitype/StillImage" />
        <dc:title></dc:title>
      </cc:Work>
    </rdf:RDF>
  </metadata>
  <g
     inkscape:label="Calque 1"
     inkscape:groupmode="layer"
     id="layer1"
     transform="translate(0,-1020.3622)">
    <rect
       style="fill:#c8b7b7;fill-opacity:1;stroke:#6c5353;stroke-width:0.20000000000000001;stroke-miterlimit:4;stroke-dasharray:none"
       id="rect3024"
       width="25.547277"
       height="25.409195"
       x="3.4864047"
       y="1023.5234"
       ry="0" />
    <rect
       style="fill:none;stroke:#ac9393;stroke-width:0.93312937"
       id="rect3930"
       width="18.480658"
       height="18.380768"
       x="7.1939998"
       y="1027.3567"
       ry="0" />
    <rect
       ry="0"
       y="1026.4771"
       x="6.5659919"
       height="19.697985"
       width="19.805031"
       id="rect3794"
       style="fill:none;stroke:#afc6e9" />
    <g
       id="g3932"
       transform="matrix(0.83617255,0,0,0.87106266,0.3009469,132.98721)">
      <path
         sodipodi:type="arc"
         style="fill:none;stroke:#ac9393"
         id="path3928"
         sodipodi:cx="15.783633"
         sodipodi:cy="16.153233"
         sodipodi:rx="9.659584"
         sodipodi:ry="9.280776"
         d="m 25.443217,16.153233 c 0,5.125631 -4.324743,9.280776 -9.659584,9.280776 -5.334841,0 -9.6595838,-4.155145 -9.6595838,-9.280776 0,-5.125631 4.3247428,-9.2807764 9.6595838,-9.2807764 5.334841,0 9.659584,4.1551454 9.659584,9.2807764 z"
         transform="matrix(0.9385435,0,0,0.93603512,4.5055407,1022.2424)" />
      <path
         transform="translate(3.5355339,1021.1198)"
         d="m 25.443217,16.153233 c 0,5.125631 -4.324743,9.280776 -9.659584,9.280776 -5.334841,0 -9.6595838,-4.155145 -9.6595838,-9.280776 0,-5.125631 4.3247428,-9.2807764 9.6595838,-9.2807764 5.334841,0 9.659584,4.1551454 9.659584,9.2807764 z"
         sodipodi:ry="9.280776"
         sodipodi:rx="9.659584"
         sodipodi:cy="16.153233"
         sodipodi:cx="15.783633"
         id="path3796"
         style="fill:none;stroke:#afc6e9"
         sodipodi:type="arc" />
      <path
         sodipodi:type="arc"
         style="fill:#c8b7b7;fill-opacity:1;stroke:#ac9d93"
         id="path3818"
         sodipodi:cx="15.783633"
         sodipodi:cy="16.153233"
         sodipodi:rx="9.659584"
         sodipodi:ry="9.280776"
         d="m 25.443217,16.153233 c 0,5.125631 -4.324743,9.280776 -9.659584,9.280776 -5.334841,0 -9.6595838,-4.155145 -9.6595838,-9.280776 0,-5.125631 4.3247428,-9.2807764 9.6595838,-9.2807764 5.334841,0 9.659584,4.1551454 9.659584,9.2807764 z"
         transform="matrix(0.57850081,0,0,0.57850081,10.470485,1027.5828)" />
      <path
         sodipodi:type="arc"
         style="fill:#87aade;fill-opacity:1;stroke:none"
         id="path3812"
         sodipodi:cx="6.1240497"
         sodipodi:cy="8.1667137"
         sodipodi:rx="3.1567266"
         sodipodi:ry="3.3776975"
         d="m 9.2807763,8.1667137 c 0,1.8654513 -1.4133147,3.3776973 -3.1567266,3.3776973 -1.743412,0 -3.1567266,-1.512246 -3.1567266,-3.3776973 0,-1.8654508 1.4133146,-3.3776975 3.1567266,-3.3776975 1.7434119,0 3.1567266,1.5122467 3.1567266,3.3776975 z"
         transform="matrix(0.53973695,0,0,0.50442706,11.673312,1028.5074)" />
      <path
         transform="matrix(0.42615015,0,0,0.39827117,12.368923,1029.3384)"
         d="m 9.2807763,8.1667137 c 0,1.8654513 -1.4133147,3.3776973 -3.1567266,3.3776973 -1.743412,0 -3.1567266,-1.512246 -3.1567266,-3.3776973 0,-1.8654508 1.4133146,-3.3776975 3.1567266,-3.3776975 1.7434119,0 3.1567266,1.5122467 3.1567266,3.3776975 z"
         sodipodi:ry="3.3776975"
         sodipodi:rx="3.1567266"
         sodipodi:cy="8.1667137"
         sodipodi:cx="6.1240497"
         id="path3814"
         style="fill:#afc6e9;fill-opacity:1;stroke:none"
         sodipodi:type="arc" />
      <path
         sodipodi:type="arc"
         style="fill:#ac9d93;fill-opacity:1;stroke:#917c6f"
         id="path3816"
         sodipodi:cx="6.1240497"
         sodipodi:cy="8.1667137"
         sodipodi:rx="3.1567266"
         sodipodi:ry="3.3776975"
         d="m 9.2807763,8.1667137 c 0,1.8654513 -1.4133147,3.3776973 -3.1567266,3.3776973 -1.743412,0 -3.1567266,-1.512246 -3.1567266,-3.3776973 0,-1.8654508 1.4133146,-3.3776975 3.1567266,-3.3776975 1.7434119,0 3.1567266,1.5122467 3.1567266,3.3776975 z"
         transform="matrix(0.26712862,0,0,0.24965292,13.271066,1030.5522)" />
      <path
         transform="matrix(0.53973695,0,0,0.50442706,11.673312,1028.5074)"
         d="m 9.2807763,8.1667137 c 0,1.8654513 -1.4133147,3.3776973 -3.1567266,3.3776973 -1.743412,0 -3.1567266,-1.512246 -3.1567266,-3.3776973 0,-1.8654508 1.4133146,-3.3776975 3.1567266,-3.3776975 1.7434119,0 3.1567266,1.5122467 3.1567266,3.3776975 z"
         sodipodi:ry="3.3776975"
         sodipodi:rx="3.1567266"
         sodipodi:cy="8.1667137"
         sodipodi:cx="6.1240497"
         id="path3820"
         style="fill:#87aade;fill-opacity:1;stroke:none"
         sodipodi:type="arc" />
      <path
         sodipodi:type="arc"
         style="fill:#afc6e9;fill-opacity:1;stroke:none"
         id="path3822"
         sodipodi:cx="6.1240497"
         sodipodi:cy="8.1667137"
         sodipodi:rx="3.1567266"
         sodipodi:ry="3.3776975"
         d="m 9.2807763,8.1667137 c 0,1.8654513 -1.4133147,3.3776973 -3.1567266,3.3776973 -1.743412,0 -3.1567266,-1.512246 -3.1567266,-3.3776973 0,-1.8654508 1.4133146,-3.3776975 3.1567266,-3.3776975 1.7434119,0 3.1567266,1.5122467 3.1567266,3.3776975 z"
         transform="matrix(0.42615015,0,0,0.39827117,12.368923,1029.3384)" />
      <path
         transform="matrix(0.26712862,0,0,0.24965292,13.271066,1030.5522)"
         d="m 9.2807763,8.1667137 c 0,1.8654513 -1.4133147,3.3776973 -3.1567266,3.3776973 -1.743412,0 -3.1567266,-1.512246 -3.1567266,-3.3776973 0,-1.8654508 1.4133146,-3.3776975 3.1567266,-3.3776975 1.7434119,0 3.1567266,1.5122467 3.1567266,3.3776975 z"
         sodipodi:ry="3.3776975"
         sodipodi:rx="3.1567266"
         sodipodi:cy="8.1667137"
         sodipodi:cx="6.1240497"
         id="path3824"
         style="fill:#ac9d93;fill-opacity:1;stroke:#917c6f"
         sodipodi:type="arc" />
      <path
         transform="matrix(0.53973695,0,0,0.50442706,11.673312,1037.5584)"
         d="m 9.2807763,8.1667137 c 0,1.8654513 -1.4133147,3.3776973 -3.1567266,3.3776973 -1.743412,0 -3.1567266,-1.512246 -3.1567266,-3.3776973 0,-1.8654508 1.4133146,-3.3776975 3.1567266,-3.3776975 1.7434119,0 3.1567266,1.5122467 3.1567266,3.3776975 z"
         sodipodi:ry="3.3776975"
         sodipodi:rx="3.1567266"
         sodipodi:cy="8.1667137"
         sodipodi:cx="6.1240497"
         id="path3826"
         style="fill:#87aade;fill-opacity:1;stroke:none"
         sodipodi:type="arc" />
      <path
         sodipodi:type="arc"
         style="fill:#afc6e9;fill-opacity:1;stroke:none"
         id="path3828"
         sodipodi:cx="6.1240497"
         sodipodi:cy="8.1667137"
         sodipodi:rx="3.1567266"
         sodipodi:ry="3.3776975"
         d="m 9.2807763,8.1667137 c 0,1.8654513 -1.4133147,3.3776973 -3.1567266,3.3776973 -1.743412,0 -3.1567266,-1.512246 -3.1567266,-3.3776973 0,-1.8654508 1.4133146,-3.3776975 3.1567266,-3.3776975 1.7434119,0 3.1567266,1.5122467 3.1567266,3.3776975 z"
         transform="matrix(0.42615015,0,0,0.39827117,12.368923,1038.3895)" />
      <path
         transform="matrix(0.26712862,0,0,0.24965292,13.271066,1039.6032)"
         d="m 9.2807763,8.1667137 c 0,1.8654513 -1.4133147,3.3776973 -3.1567266,3.3776973 -1.743412,0 -3.1567266,-1.512246 -3.1567266,-3.3776973 0,-1.8654508 1.4133146,-3.3776975 3.1567266,-3.3776975 1.7434119,0 3.1567266,1.5122467 3.1567266,3.3776975 z"
         sodipodi:ry="3.3776975"
         sodipodi:rx="3.1567266"
         sodipodi:cy="8.1667137"
         sodipodi:cx="6.1240497"
         id="path3830"
         style="fill:#ac9d93;fill-opacity:1;stroke:#917c6f"
         sodipodi:type="arc" />
      <path
         sodipodi:type="arc"
         style="fill:#87aade;fill-opacity:1;stroke:none"
         id="path3832"
         sodipodi:cx="6.1240497"
         sodipodi:cy="8.1667137"
         sodipodi:rx="3.1567266"
         sodipodi:ry="3.3776975"
         d="m 9.2807763,8.1667137 c 0,1.8654513 -1.4133147,3.3776973 -3.1567266,3.3776973 -1.743412,0 -3.1567266,-1.512246 -3.1567266,-3.3776973 0,-1.8654508 1.4133146,-3.3776975 3.1567266,-3.3776975 1.7434119,0 3.1567266,1.5122467 3.1567266,3.3776975 z"
         transform="matrix(0.53973695,0,0,0.50442706,11.673312,1037.5584)" />
      <path
         transform="matrix(0.42615015,0,0,0.39827117,12.368923,1038.3895)"
         d="m 9.2807763,8.1667137 c 0,1.8654513 -1.4133147,3.3776973 -3.1567266,3.3776973 -1.743412,0 -3.1567266,-1.512246 -3.1567266,-3.3776973 0,-1.8654508 1.4133146,-3.3776975 3.1567266,-3.3776975 1.7434119,0 3.1567266,1.5122467 3.1567266,3.3776975 z"
         sodipodi:ry="3.3776975"
         sodipodi:rx="3.1567266"
         sodipodi:cy="8.1667137"
         sodipodi:cx="6.1240497"
         id="path3834"
         style="fill:#afc6e9;fill-opacity:1;stroke:none"
         sodipodi:type="arc" />
      <path
         sodipodi:type="arc"
         style="fill:#ac9d93;fill-opacity:1;stroke:#917c6f"
         id="path3836"
         sodipodi:cx="6.1240497"
         sodipodi:cy="8.1667137"
         sodipodi:rx="3.1567266"
         sodipodi:ry="3.3776975"
         d="m 9.2807763,8.1667137 c 0,1.8654513 -1.4133147,3.3776973 -3.1567266,3.3776973 -1.743412,0 -3.1567266,-1.512246 -3.1567266,-3.3776973 0,-1.8654508 1.4133146,-3.3776975 3.1567266,-3.3776975 1.7434119,0 3.1567266,1.5122467 3.1567266,3.3776975 z"
         transform="matrix(0.26712862,0,0,0.24965292,13.271066,1039.6032)" />
      <path
         transform="matrix(0.53973695,0,0,0.50442706,20.724373,1028.6318)"
         d="m 9.2807763,8.1667137 c 0,1.8654513 -1.4133147,3.3776973 -3.1567266,3.3776973 -1.743412,0 -3.1567266,-1.512246 -3.1567266,-3.3776973 0,-1.8654508 1.4133146,-3.3776975 3.1567266,-3.3776975 1.7434119,0 3.1567266,1.5122467 3.1567266,3.3776975 z"
         sodipodi:ry="3.3776975"
         sodipodi:rx="3.1567266"
         sodipodi:cy="8.1667137"
         sodipodi:cx="6.1240497"
         id="path3850"
         style="fill:#87aade;fill-opacity:1;stroke:none"
         sodipodi:type="arc" />
      <path
         sodipodi:type="arc"
         style="fill:#afc6e9;fill-opacity:1;stroke:none"
         id="path3852"
         sodipodi:cx="6.1240497"
         sodipodi:cy="8.1667137"
         sodipodi:rx="3.1567266"
         sodipodi:ry="3.3776975"
         d="m 9.2807763,8.1667137 c 0,1.8654513 -1.4133147,3.3776973 -3.1567266,3.3776973 -1.743412,0 -3.1567266,-1.512246 -3.1567266,-3.3776973 0,-1.8654508 1.4133146,-3.3776975 3.1567266,-3.3776975 1.7434119,0 3.1567266,1.5122467 3.1567266,3.3776975 z"
         transform="matrix(0.42615015,0,0,0.39827117,21.419984,1029.4629)" />
      <path
         transform="matrix(0.26712862,0,0,0.24965292,22.322127,1030.6766)"
         d="m 9.2807763,8.1667137 c 0,1.8654513 -1.4133147,3.3776973 -3.1567266,3.3776973 -1.743412,0 -3.1567266,-1.512246 -3.1567266,-3.3776973 0,-1.8654508 1.4133146,-3.3776975 3.1567266,-3.3776975 1.7434119,0 3.1567266,1.5122467 3.1567266,3.3776975 z"
         sodipodi:ry="3.3776975"
         sodipodi:rx="3.1567266"
         sodipodi:cy="8.1667137"
         sodipodi:cx="6.1240497"
         id="path3854"
         style="fill:#ac9d93;fill-opacity:1;stroke:#917c6f"
         sodipodi:type="arc" />
      <path
         sodipodi:type="arc"
         style="fill:#87aade;fill-opacity:1;stroke:none"
         id="path3856"
         sodipodi:cx="6.1240497"
         sodipodi:cy="8.1667137"
         sodipodi:rx="3.1567266"
         sodipodi:ry="3.3776975"
         d="m 9.2807763,8.1667137 c 0,1.8654513 -1.4133147,3.3776973 -3.1567266,3.3776973 -1.743412,0 -3.1567266,-1.512246 -3.1567266,-3.3776973 0,-1.8654508 1.4133146,-3.3776975 3.1567266,-3.3776975 1.7434119,0 3.1567266,1.5122467 3.1567266,3.3776975 z"
         transform="matrix(0.53973695,0,0,0.50442706,20.724373,1028.6318)" />
      <path
         transform="matrix(0.42615015,0,0,0.39827117,21.419984,1029.4629)"
         d="m 9.2807763,8.1667137 c 0,1.8654513 -1.4133147,3.3776973 -3.1567266,3.3776973 -1.743412,0 -3.1567266,-1.512246 -3.1567266,-3.3776973 0,-1.8654508 1.4133146,-3.3776975 3.1567266,-3.3776975 1.7434119,0 3.1567266,1.5122467 3.1567266,3.3776975 z"
         sodipodi:ry="3.3776975"
         sodipodi:rx="3.1567266"
         sodipodi:cy="8.1667137"
         sodipodi:cx="6.1240497"
         id="path3858"
         style="fill:#afc6e9;fill-opacity:1;stroke:none"
         sodipodi:type="arc" />
      <path
         sodipodi:type="arc"
         style="fill:#ac9d93;fill-opacity:1;stroke:#917c6f"
         id="path3860"
         sodipodi:cx="6.1240497"
         sodipodi:cy="8.1667137"
         sodipodi:rx="3.1567266"
         sodipodi:ry="3.3776975"
         d="m 9.2807763,8.1667137 c 0,1.8654513 -1.4133147,3.3776973 -3.1567266,3.3776973 -1.743412,0 -3.1567266,-1.512246 -3.1567266,-3.3776973 0,-1.8654508 1.4133146,-3.3776975 3.1567266,-3.3776975 1.7434119,0 3.1567266,1.5122467 3.1567266,3.3776975 z"
         transform="matrix(0.26712862,0,0,0.24965292,22.322127,1030.6766)" />
      <path
         sodipodi:type="arc"
         style="fill:#87aade;fill-opacity:1;stroke:none"
         id="path3862"
         sodipodi:cx="6.1240497"
         sodipodi:cy="8.1667137"
         sodipodi:rx="3.1567266"
         sodipodi:ry="3.3776975"
         d="m 9.2807763,8.1667137 c 0,1.8654513 -1.4133147,3.3776973 -3.1567266,3.3776973 -1.743412,0 -3.1567266,-1.512246 -3.1567266,-3.3776973 0,-1.8654508 1.4133146,-3.3776975 3.1567266,-3.3776975 1.7434119,0 3.1567266,1.5122467 3.1567266,3.3776975 z"
         transform="matrix(0.53973695,0,0,0.50442706,20.724373,1037.6414)" />
      <path
         transform="matrix(0.42615015,0,0,0.39827117,21.419984,1038.4724)"
         d="m 9.2807763,8.1667137 c 0,1.8654513 -1.4133147,3.3776973 -3.1567266,3.3776973 -1.743412,0 -3.1567266,-1.512246 -3.1567266,-3.3776973 0,-1.8654508 1.4133146,-3.3776975 3.1567266,-3.3776975 1.7434119,0 3.1567266,1.5122467 3.1567266,3.3776975 z"
         sodipodi:ry="3.3776975"
         sodipodi:rx="3.1567266"
         sodipodi:cy="8.1667137"
         sodipodi:cx="6.1240497"
         id="path3864"
         style="fill:#afc6e9;fill-opacity:1;stroke:none"
         sodipodi:type="arc" />
      <path
         sodipodi:type="arc"
         style="fill:#ac9d93;fill-opacity:1;stroke:#917c6f"
         id="path3866"
         sodipodi:cx="6.1240497"
         sodipodi:cy="8.1667137"
         sodipodi:rx="3.1567266"
         sodipodi:ry="3.3776975"
         d="m 9.2807763,8.1667137 c 0,1.8654513 -1.4133147,3.3776973 -3.1567266,3.3776973 -1.743412,0 -3.1567266,-1.512246 -3.1567266,-3.3776973 0,-1.8654508 1.4133146,-3.3776975 3.1567266,-3.3776975 1.7434119,0 3.1567266,1.5122467 3.1567266,3.3776975 z"
         transform="matrix(0.26712862,0,0,0.24965292,22.322127,1039.6862)" />
      <path
         transform="matrix(0.53973695,0,0,0.50442706,20.724373,1037.6414)"
         d="m 9.2807763,8.1667137 c 0,1.8654513 -1.4133147,3.3776973 -3.1567266,3.3776973 -1.743412,0 -3.1567266,-1.512246 -3.1567266,-3.3776973 0,-1.8654508 1.4133146,-3.3776975 3.1567266,-3.3776975 1.7434119,0 3.1567266,1.5122467 3.1567266,3.3776975 z"
         sodipodi:ry="3.3776975"
         sodipodi:rx="3.1567266"
         sodipodi:cy="8.1667137"
         sodipodi:cx="6.1240497"
         id="path3868"
         style="fill:#87aade;fill-opacity:1;stroke:none"
         sodipodi:type="arc" />
      <path
         sodipodi:type="arc"
         style="fill:#afc6e9;fill-opacity:1;stroke:none"
         id="path3870"
         sodipodi:cx="6.1240497"
         sodipodi:cy="8.1667137"
         sodipodi:rx="3.1567266"
         sodipodi:ry="3.3776975"
         d="m 9.2807763,8.1667137 c 0,1.8654513 -1.4133147,3.3776973 -3.1567266,3.3776973 -1.743412,0 -3.1567266,-1.512246 -3.1567266,-3.3776973 0,-1.8654508 1.4133146,-3.3776975 3.1567266,-3.3776975 1.7434119,0 3.1567266,1.5122467 3.1567266,3.3776975 z"
         transform="matrix(0.42615015,0,0,0.39827117,21.419984,1038.4724)" />
      <path
         transform="matrix(0.26712862,0,0,0.24965292,22.322127,1039.6862)"
         d="m 9.2807763,8.1667137 c 0,1.8654513 -1.4133147,3.3776973 -3.1567266,3.3776973 -1.743412,0 -3.1567266,-1.512246 -3.1567266,-3.3776973 0,-1.8654508 1.4133146,-3.3776975 3.1567266,-3.3776975 1.7434119,0 3.1567266,1.5122467 3.1567266,3.3776975 z"
         sodipodi:ry="3.3776975"
         sodipodi:rx="3.1567266"
         sodipodi:cy="8.1667137"
         sodipodi:cx="6.1240497"
         id="path3872"
         style="fill:#ac9d93;fill-opacity:1;stroke:#917c6f"
         sodipodi:type="arc" />
      <path
         transform="matrix(0.57850081,0,0,0.57850081,10.470485,1027.5828)"
         d="m 25.443217,16.153233 c 0,5.125631 -4.324743,9.280776 -9.659584,9.280776 -5.334841,0 -9.6595838,-4.155145 -9.6595838,-9.280776 0,-5.125631 4.3247428,-9.2807764 9.6595838,-9.2807764 5.334841,0 9.659584,4.1551454 9.659584,9.2807764 z"
         sodipodi:ry="9.280776"
         sodipodi:rx="9.659584"
         sodipodi:cy="16.153233"
         sodipodi:cx="15.783633"
         id="path3918"
         style="fill:url(#radialGradient3962);fill-opacity:1;stroke:none"
         sodipodi:type="arc" />
    </g>
  </g>
</svg>
